<?xml version="1.0" encoding="UTF-8"?>
<!DOCTYPE svg PUBLIC "-//W3C//DTD SVG 1.1//EN" "http://www.w3.org/Graphics/SVG/1.1/DTD/svg11.dtd">
<!-- Creator: CorelDRAW X6 -->
<svg xmlns="http://www.w3.org/2000/svg" xml:space="preserve" width="100px" height="200px" version="1.1" style="shape-rendering:geometricPrecision; text-rendering:geometricPrecision; image-rendering:optimizeQuality; fill-rule:evenodd; clip-rule:evenodd"
viewBox="0 0 838 1331"
 xmlns:xlink="http://www.w3.org/1999/xlink">
 <defs>
  <style type="text/css">
   <![CDATA[
    .fil0 {fill:#ED3237}
   ]]>
  </style>
 </defs>
 <g id="Layer_x0020_1">
  <metadata id="CorelCorpID_0Corel-Layer"/>
  <path class="fil0" d="M51 1111c-143,-337 30,-765 332,-1111 -15,302 108,435 277,533 217,126 261,535 -14,727 -162,113 -451,111 -595,-149zm367 -371c-99,0 -179,79 -179,177 0,98 80,178 179,178 99,0 179,-80 179,-178 0,-98 -80,-177 -179,-177zm30 51l-60 0 0 96 -97 0 0 60 97 0 0 96 60 0 0 -96 97 0 0 -60 -97 0 0 -96z"/>
 </g>
</svg>
