<?xml version="1.0" ?><!DOCTYPE svg  PUBLIC '-//W3C//DTD SVG 1.1//EN'  'http://www.w3.org/Graphics/SVG/1.1/DTD/svg11.dtd'><svg enable-background="new 0 0 128 128" id="Layer_1" version="1.1" viewBox="0 0 128 128" height="380" width="380" xml:space="preserve" xmlns="http://www.w3.org/2000/svg" xmlns:xlink="http://www.w3.org/1999/xlink"><path d="M63.8,76.4c-7.6,0-13.7-6.2-13.7-13.8s6.1-13.8,13.7-13.8l4.2,0.3v27.5L63.8,76.4z" fill="#53AF80"/><rect fill="#8DCEA8" height="33" width="14" x="59" y="20"/><rect fill="none" height="33" stroke="#3D3D3D" stroke-miterlimit="10" stroke-width="2" width="14" x="59" y="20"/><polygon fill="#8DCEA8" points="73,74 59,74 59,111.6 66,116.9 73,111.6 "/><polygon fill="none" points="73,74 59,74 59,111.6 66,116.9 73,111.6 " stroke="#3D3D3D" stroke-miterlimit="10" stroke-width="2"/><path d="M63.9,77c-7.6,0-13.8-6.4-13.8-14s6.2-14,13.8-14H68  v28H63.9z" fill="none" stroke="#3D3D3D" stroke-miterlimit="10" stroke-width="2"/><circle cx="68.1" cy="63" fill="#FFFFFF" r="13.8"/><circle cx="68.1" cy="63" fill="none" r="13.8" stroke="#3D3D3D" stroke-miterlimit="10" stroke-width="2"/><polyline fill="none" points="68,53 68,63 73,63 " stroke="#3D3D3D" stroke-miterlimit="10" stroke-width="2"/><path d="M75,11.1c0-0.6-0.5-1.1-1.1-1.1H57.1  c-0.6,0-1.1,0.5-1.1,1.1v7.9c0,0.6,0.5,1.1,1.1,1.1h16.9c0.6,0,1.1-0.5,1.1-1.1V11.1z" fill="none" stroke="#3D3D3D" stroke-miterlimit="10" stroke-width="2"/><line fill="none" stroke="#3D3D3D" stroke-miterlimit="10" stroke-width="2" x1="66" x2="66" y1="20" y2="12"/><circle cx="66" cy="100" fill="#3D3D3D" r="2.1"/><circle cx="66" cy="107.7" fill="#3D3D3D" r="2.1"/><circle cx="66" cy="92.3" fill="#3D3D3D" r="2.1"/></svg>